<svg xmlns="http://www.w3.org/2000/svg" width="180.65" height="27.74" viewBox="0 0 180.65 27.74">
  <g id="logo" transform="translate(0)">
    <rect id="Rectangle" width="27.74" height="27.74" transform="translate(0 0)" fill="none"/>
    <path id="Combined_Shape" data-name="Combined Shape" d="M89.527,23.529,87.9,21.083a11.484,11.484,0,0,1-4.747,1.049,10.939,10.939,0,0,1-7.8-3.244,11.067,11.067,0,0,1,0-15.641,11.075,11.075,0,0,1,18.9,7.79,11.216,11.216,0,0,1-3.961,8.532l1.631,2.446-2.387,1.514h0ZM74.938,11.037a8.241,8.241,0,1,0,8.212-8.212A8.25,8.25,0,0,0,74.938,11.037Zm-71.7,7.852a11.067,11.067,0,0,1,0-15.641A10.952,10.952,0,0,1,11.037,0a11.109,11.109,0,0,1,5.918,1.688,10.7,10.7,0,0,1,3.954,4.4L18.375,7.339a8.081,8.081,0,0,0-7.339-4.513,8.241,8.241,0,1,0,7.339,11.91l2.533,1.282A11.016,11.016,0,0,1,3.236,18.888Zm128.843.1L134,16.919c1.32,1.293,2.491,1.922,3.582,1.922,1.472,0,2.243-1.377,2.243-2.737,0-2.055-1.611-3.02-3.316-4.04-2.036-1.22-4.342-2.6-4.342-6.123a5.8,5.8,0,0,1,1.4-3.884,4.74,4.74,0,0,1,3.582-1.59,8,8,0,0,1,5.067,2.271l-1.893,2.126a5.366,5.366,0,0,0-3.174-1.572c-1.569,0-2.126,1.427-2.126,2.651,0,1.973,1.569,2.9,3.229,3.89,2.063,1.225,4.4,2.613,4.4,6.273a6.044,6.044,0,0,1-1.387,3.865,4.769,4.769,0,0,1-3.68,1.725C136.345,21.694,134.385,21.225,132.079,18.986Zm-32.067-5.009V.7h2.854V13.978c0,3.341,1.328,4.863,2.562,4.863,1.305,0,2.709-1.522,2.709-4.863V.7h2.824V13.978a9.1,9.1,0,0,1-1.74,5.8,4.872,4.872,0,0,1-3.794,1.914C102.821,21.694,100.013,19.28,100.013,13.978ZM58.277,21.434H55.4L60.521.7h2.766l5.126,20.732H65.471l-.554-2.272H58.831l-.553,2.272h0ZM61.889,6.028l-2.3,10.279h4.631L61.889,6.028h0Zm65.208,15.4h-9.288V.7H127.1V3.552h-6.435V9.61h4.455v2.824h-4.455v6.174H127.1v2.823h0Zm-76.218,0H41.589V.7h9.29V3.552H44.443V9.61H48.9v2.824H44.443v6.174h6.436v2.823h0Zm-15.087,0H26.444V.7H29.3V18.608h6.494v2.823h0Z" transform="translate(38 2)" fill="#fff"/>
    <g id="Group_6" data-name="Group 6" transform="translate(0 0)">
      <circle id="Oval" cx="2.034" cy="2.034" r="2.034" transform="translate(19.322 15.763)" fill="#e9634b"/>
      <path id="Combined_Shape-2" data-name="Combined Shape" d="M13.834,27.74a13.711,13.711,0,0,1-9.778-4.065,13.872,13.872,0,0,1,0-19.6A13.834,13.834,0,0,1,22.63,3.138L19.582,5.272A10.335,10.335,0,1,0,20.689,21.6l2.856,4.079,1.275,1.913-5.037-1.168A14.4,14.4,0,0,1,13.834,27.74Z" transform="translate(0 0)" fill="#00b0f3"/>
    </g>
  </g>
</svg>
