<svg xmlns="http://www.w3.org/2000/svg" width="102.259" height="120.078" viewBox="0 0 102.259 120.078">
  <g id="nopost" transform="translate(1.579 0)">
    <path id="Shape" d="M74.037,94.441H4.7A4.706,4.706,0,0,1,0,89.74V2.8A2.353,2.353,0,0,1,2.351.45h.024L8.12.51l4.646.047,3.282.035L77.6,1.215,78.737,81.68V89.74A4.706,4.706,0,0,1,74.037,94.441Z" transform="translate(0.003 24.704) rotate(-7)" fill="#fff" stroke="#b6b6b6" stroke-linecap="round" stroke-miterlimit="10" stroke-width="2.938"/>
    <path id="Rectangle" d="M69.5.716l1.015,72.922v7.3A4.235,4.235,0,0,1,66.3,85.2H4.21A4.235,4.235,0,0,1,0,80.941V2.35A2.35,2.35,0,0,1,2.35,0h7.681" transform="translate(5.136 29.229) rotate(-7)" fill="#f4f4f4"/>
    <g id="Rectangle-2" data-name="Rectangle" transform="translate(21.943)" fill="#fff" stroke-miterlimit="10">
      <path d="M 74.03649139404297 97.24636077880859 L 4.70073413848877 97.24636077880859 C 2.918734312057495 97.24636077880859 1.468974232673645 95.79660034179688 1.468974232673645 94.01460266113281 L 1.468974232673645 4.700732707977295 C 1.468974232673645 2.918732643127441 2.918734312057495 1.468972682952881 4.70073413848877 1.468972682952881 L 58.23823928833008 1.468972682952881 C 59.10109329223633 1.468972682952881 59.91241455078125 1.804892659187317 60.52273559570313 2.414825916290283 L 76.32098388671875 18.20330619812012 C 76.93183898925781 18.81379890441895 77.26825714111328 19.62561225891113 77.26825714111328 20.48921203613281 L 77.26825714111328 94.01460266113281 C 77.26825714111328 95.79660034179688 75.81849670410156 97.24636077880859 74.03649139404297 97.24636077880859 Z" stroke="none"/>
      <path d="M 4.700736999511719 2.937965393066406 C 3.728736877441406 2.937965393066406 2.937957763671875 3.728729248046875 2.937957763671875 4.700729370117188 L 2.937957763671875 94.01458740234375 C 2.937957763671875 94.98658752441406 3.728736877441406 95.77736663818359 4.700736999511719 95.77736663818359 L 74.03649139404297 95.77736663818359 C 75.00849151611328 95.77736663818359 75.79927062988281 94.98658752441406 75.79927062988281 94.01458740234375 L 75.79927062988281 20.48920440673828 C 75.79927062988281 20.01816558837891 75.61577606201172 19.57536315917969 75.28257751464844 19.24236297607422 L 59.48431396484375 3.453865051269531 C 59.15143585205078 3.121185302734375 58.70889282226563 2.937965393066406 58.23823547363281 2.937965393066406 L 4.700736999511719 2.937965393066406 M 4.700736999511719 7.62939453125e-06 L 58.23823547363281 7.62939453125e-06 C 59.48443603515625 7.62939453125e-06 60.67965698242188 0.494842529296875 61.56113433837891 1.375785827636719 L 77.359375 17.16426849365234 C 78.2415771484375 18.04590606689453 78.73723602294922 19.24200439453125 78.73723602294922 20.48920440673828 L 78.73723602294922 94.01458740234375 C 78.73723602294922 96.61074829101563 76.63263702392578 98.71532440185547 74.03649139404297 98.71532440185547 L 4.700736999511719 98.71532440185547 C 2.104591369628906 98.71532440185547 -7.62939453125e-06 96.61074829101563 -7.62939453125e-06 94.01458740234375 L -7.62939453125e-06 4.700729370117188 C -7.62939453125e-06 2.104583740234375 2.104591369628906 7.62939453125e-06 4.700736999511719 7.62939453125e-06 Z" stroke="none" fill="#b6b6b6"/>
    </g>
    <path id="Shape-2" data-name="Shape" d="M0,0V13.629a3.526,3.526,0,0,0,3.526,3.526h9.323" transform="translate(80.702 2.824)" fill="#fff" stroke="#b6b6b6" stroke-linecap="round" stroke-miterlimit="10" stroke-width="2.938"/>
    <path id="lines" d="M0,60.522H0ZM0,45.245H0ZM0,29.967H0ZM0,14.69H0ZM0,.588H0Z" transform="translate(36.045 19.391)" fill="none" stroke="#e5e5e5" stroke-linecap="round" stroke-linejoin="round" stroke-miterlimit="10" stroke-width="2.938"/>
  </g>
</svg>
