<?xml version="1.0" encoding="UTF-8"?>
<svg width="627px" height="441px" viewBox="0 0 627 441" version="1.1" xmlns="http://www.w3.org/2000/svg" xmlns:xlink="http://www.w3.org/1999/xlink">
    <title>OBJECTS 2</title>
    <g id="Page-1" stroke="none" stroke-width="1" fill="none" fill-rule="evenodd">
        <g id="Contact" transform="translate(-1041.000000, -995.000000)">
            <g id="OBJECTS" transform="translate(1041.000000, 995.000000)">
                <path d="M458.724774,10.2550166 C470.099097,6.6115363 482.246331,5.91207159 494.174226,6.60109653 C511.314046,7.64507371 529.12233,11.8209824 541.718688,23.503087 C549.667136,30.8109273 554.931285,40.5512343 561.313022,49.2788835 C579.831549,74.6057699 608.45014,92.7292137 620.94205,121.501225 C631.616576,146.097327 627.605795,177.019931 609.233495,196.552744 C590.861195,216.085557 558.503387,221.608196 535.75474,207.420546 C513.914787,193.786204 504.263846,166.642798 484.31439,150.367194 C470.057318,138.737288 451.632794,133.548721 436.143243,123.610059 C420.288126,113.452161 407.399315,97.5106291 404.474788,78.8651967 C402.062053,63.4247743 407.60821,46.6480611 419.661442,36.4901631 C431.44311,26.5306208 443.841018,14.9842333 458.724774,10.2550166 Z" id="Path" fill="#FFE4DF" fill-rule="nonzero"></path>
                <path d="M557.699142,199.214886 C538.00036,202.346817 518.740257,197.283528 499.062364,193.660927 C480.178272,190.174043 461.356849,183.638746 446.347755,171.298936 C439.475116,165.64058 433.385832,158.614613 430.680644,150.137519 C426.836979,138.048263 430.346412,124.988108 430.315078,112.293346 C430.315078,97.3957916 426.554971,83.061985 416.214677,72.0584655 C409.947832,65.3770116 402.636513,59.5307394 397.654372,51.773989 C387.355857,35.6341018 395.325194,14.0237743 411.451875,4.92029327 C426.137181,-3.43152414 444.875047,-0.101236949 460.08259,7.10220557 C475.290133,14.3056481 488.753405,25.058613 504.07584,32.1785374 C520.870984,39.924848 539.243284,42.9628216 557.772255,44.7062635 C571.935324,46.0425543 586.369957,44.4139499 597.92184,52.7135685 C606.194075,58.6433588 612.043131,67.5484841 615.437671,77.1426344 C621.861187,95.2973975 620.576484,116.636291 617.610178,135.375681 C615.625677,147.903407 611.635786,160.358055 604.345356,170.776947 C595.404658,183.565668 581.732491,192.773547 566.744288,197.231329 C563.776039,198.090135 560.754461,198.752752 557.699142,199.214886 Z" id="Path" fill="#FFC8BE" fill-rule="nonzero"></path>
                <path d="M526.688705,441 L68.624133,441 C34.03115,414.608257 10.0082451,376.97288 3.51161603,333.97146 C0.848207016,316.14033 2.35224976,294.905834 16.9331085,284.205068 C39.3475233,267.731108 73.0004795,288.495814 98.3289771,276.991185 C114.643663,269.578947 122.686114,250.317569 122.85323,232.40292 C123.020345,214.488272 116.97284,197.20001 112.408488,179.859549 C107.844136,162.519088 104.888275,143.811017 111.008893,126.971665 C117.129511,110.132313 135.167579,96.4770917 152.526739,100.945314 C167.400051,104.77671 176.842097,119.841301 191.099169,125.562296 C205.930701,131.523406 223.15408,126.105164 236.324898,117.043442 C249.495717,107.98172 259.971793,95.5792713 272.286143,85.3796143 C293.885867,67.4754057 322.420901,56.5032056 350.183023,60.6791143 C377.945145,64.855023 403.618319,86.3505131 407.952887,114.068107 C411.493654,136.743291 401.957605,162.947119 415.859556,181.206279 C431.526668,201.803949 464.323155,196.020316 486.988244,208.527162 C505.433657,218.70594 515.283048,242.310264 509.53844,262.573861 C503.668495,283.265488 483.71904,300.637269 486.967354,321.892644 C489.296531,337.14515 502.822471,347.66844 512.337631,359.799455 C530.678596,383.111466 538.961276,414.02363 526.688705,441 Z" id="Path" fill="#FFE4DF" fill-rule="nonzero"></path>
                <path d="M505.182983,441 L112.732275,441 C100.793936,430.121758 87.4037777,420.120456 80.6251407,405.504776 C73.8465036,390.889095 73.8673931,371.826072 85.011932,360.143968 C98.4752034,346.018956 120.962731,347.939874 139.888602,343.283736 C161.707667,337.907254 181.552675,320.389317 184.341421,298.100404 C187.955302,269.328393 163.838394,243.030608 165.342437,214.070681 C166.522693,191.2389 185.918577,170.724749 208.646334,168.240083 C224.020993,166.55928 239.980558,172.186317 254.81209,167.885131 C268.578259,163.886698 278.511208,152.225473 290.470437,144.322566 C304.508169,135.062488 322.44179,131.032736 338.620694,135.636676 C354.799598,140.240615 368.492654,154.229909 370.66516,170.902225 C372.983893,188.649837 363.353841,208.777717 373.568798,223.435156 C381.19346,234.365597 396.411448,236.474431 409.728493,236.046401 C423.045538,235.61837 437.250386,233.833169 448.948496,240.222309 C459.831916,246.14166 466.307656,258.387512 467.519246,270.716883 C468.730836,283.046253 465.294516,295.417383 460.207927,306.713216 C455.768912,316.58924 450.055639,325.922396 446.713321,336.216011 C443.371004,346.509626 442.692096,358.337887 448.123361,367.702362 C453.84708,377.547067 464.94984,382.672995 474.00543,389.625883 C490.006774,401.746458 503.981838,420.903439 505.182983,441 Z" id="Path" fill="#FFC8BE" fill-rule="nonzero"></path>
                <polygon id="Path" fill="#FF816B" fill-rule="nonzero" points="472.334272 59.7917337 494.99936 117.398394 543.295844 90.15059"></polygon>
                <polygon id="Path" fill="#FFAEA0" fill-rule="nonzero" points="472.334272 59.7917337 516.881093 105.048144 529.007438 98.2100938"></polygon>
                <polygon id="Path" fill="#FFAEA0" fill-rule="nonzero" points="529.007438 98.2100938 520.568087 119.100077 516.881093 105.048144"></polygon>
                <polygon id="Path" fill="#FF816B" fill-rule="nonzero" points="520.568087 119.100077 510.144235 108.858661 516.881093 105.048144"></polygon>
                <path d="M175.839402,423.127111 C124.722838,409.670245 80.1446826,373.204122 56.8320201,325.797118 C47.2124134,306.222546 41.0395713,284.497381 42.4913904,262.740897 C43.9432094,240.984413 53.688153,219.248808 71.1622051,206.199093 C88.6362572,193.149378 114.090092,190.3202 132.566839,201.908347 C150.427346,213.099782 158.929366,234.574393 174.345804,248.88732 C192.832996,265.987666 222.172274,270.977877 244.461352,259.254013 C266.75043,247.53015 279.284119,219.029573 271.15811,195.206013 C263.627452,173.146776 242.351514,159.439355 223.864322,145.241266 C205.37713,131.043176 186.994386,111.092772 189.636905,87.9373584 C191.913859,68.0391534 209.481913,53.0894002 227.916882,45.3326498 C263.324555,30.455975 308.968074,37.0643506 332.990979,66.8907785 C358.925271,98.9826369 353.932685,145.805013 342.245019,185.361309 C330.557354,224.917604 313.333976,264.985448 319.151697,305.804956 C323.987612,339.734214 345.033765,370.239227 372.952559,390.137432 C400.871352,410.035637 435.130103,419.890781 469.35752,421.989176 C503.584937,424.08757 540.162421,417.740188 565.44914,394.678733 C590.735858,371.617277 599.248323,328.584538 576.938355,302.683464 C565.376027,289.278797 548.110869,282.472066 531.503731,276.3126 C514.896592,270.153135 497.579211,263.701356 485.546869,250.71428 C473.514527,237.727204 468.835283,216.033358 480.167828,202.409456 C493.275978,186.645401 528.213637,184.912398 540.538432,168.542836 C549.343349,156.860732 539.055279,134.363023 529.049217,123.317745" id="Path" stroke="#FF8E7A" stroke-width="2.54" stroke-dasharray="7.62"></path>
                <path d="M147.398371,362.691272 C125.270443,348.149234 105.665564,330.094668 89.3569443,309.23964 C82.546973,300.511991 76.2801283,291.231034 72.1440108,280.958299 C68.0078932,270.685563 66.0965056,259.327092 68.1227854,248.448849 C69.5850492,240.6399 73.8256141,232.517758 81.3667173,230.022652 C87.2575513,228.070415 93.9004068,230.095731 98.8198799,233.895808 C103.739353,237.695884 107.175673,243.051487 110.215093,248.448849 C121.965427,269.328393 129.182743,292.295891 137.872767,314.626563 C141.936916,325.382753 146.699404,335.862217 152.129839,345.998077 C154.864634,351.013164 157.877407,355.871737 161.154096,360.551119 C164.141292,364.727027 169.562112,369.330967 171.442166,373.903587 C167.149377,377.306952 151.409152,365.322094 147.398371,362.691272 Z" id="Path" fill="#FF816B" fill-rule="nonzero"></path>
                <path d="M85.2103821,241.861353 C96.2061698,287.936616 121.18952,329.485222 156.73597,360.812113" id="Path" stroke="#FF8E7A" stroke-width="2.02"></path>
                <path d="M441.417838,362.920947 C460.409707,353.685198 477.764223,341.409872 492.79552,326.580101 C499.062364,320.378877 505.005422,313.676543 509.329545,305.971992 C513.653668,298.26744 516.348411,289.477152 515.857508,280.655545 C515.512832,274.329044 512.985205,267.470114 507.271931,264.714014 C502.812027,262.563421 497.338982,263.492561 493.067083,265.987666 C488.795184,268.482771 485.515535,272.366367 482.559673,276.33348 C471.070458,291.627745 463.038452,309.103923 453.867969,325.859757 C449.539604,333.950351 444.689996,341.751366 439.349779,349.213527 C436.674461,352.903637 433.790499,356.438034 430.711978,359.799455 C427.912787,362.837429 423.16043,365.885842 421.207263,369.310087 C424.288462,372.452459 437.981518,364.59131 441.417838,362.920947 Z" id="Path" fill="#FF816B" fill-rule="nonzero"></path>
                <path d="M503.052256,273.702657 C489.616055,309.027762 465.577406,339.334357 434.231856,360.467601" id="Path" stroke="#FF8E7A" stroke-width="1.61"></path>
                <path d="M156.944865,332.739567 C168.820536,274.203766 156.161509,211.084906 122.63389,161.652587" id="Path" stroke="#FF8E7A" stroke-width="2.54"></path>
                <path d="M126.185102,167.43622 C106.200009,160.886548 94.0081639,140.717003 97.5038425,119.987458 C107.656131,122.712238 117.19218,129.01786 122.571222,138.027383 C127.950263,147.036906 128.524724,157.194804 126.185102,167.43622 Z" id="Path" fill="#FF816B" fill-rule="nonzero"></path>
                <path d="M136.828293,186.384406 C132.261045,170.809859 139.767789,154.23721 154.490351,147.391859 C157.205983,155.044211 157.362655,163.865819 153.989003,171.246737 C150.615352,178.627656 144.390286,183.419511 136.828293,186.384406 Z" id="Path" fill="#FF816B" fill-rule="nonzero"></path>
                <path d="M137.507201,185.643182 C125.271744,174.967425 107.063956,174.843138 94.6837624,185.350869 C100.501483,191.009225 108.449931,194.851061 116.617719,194.88238 C124.785507,194.9137 131.647702,191.301539 137.507201,185.643182 Z" id="Path" fill="#FF816B" fill-rule="nonzero"></path>
                <path d="M148.891969,216.450949 C147.101713,200.317521 157.386502,185.301593 173.08199,181.133201 C174.418917,189.140506 173.029766,197.836836 168.423636,204.539169 C163.817505,211.241503 156.850862,214.874543 148.891969,216.450949 Z" id="Path" fill="#FF816B" fill-rule="nonzero"></path>
                <path d="M149.68577,215.918521 C139.504462,203.269662 121.595925,199.971123 107.572573,208.16177 C112.314486,214.749266 119.469133,219.916953 127.417581,221.357642 C135.36603,222.79833 142.896688,220.386743 149.68577,215.918521 Z" id="Path" fill="#FF816B" fill-rule="nonzero"></path>
                <path d="M156.882196,246.527931 C156.49558,230.302336 168.042467,216.235153 184.038524,213.444295 C184.675653,221.535118 182.534481,230.14793 177.364334,236.411793 C172.194187,242.675656 164.945537,245.630111 156.882196,246.527931 Z" id="Path" fill="#FF816B" fill-rule="nonzero"></path>
                <path d="M157.717776,246.026822 C148.673441,232.544681 131.123564,227.702119 116.440158,234.637031 C120.618055,241.610799 127.271355,247.383993 135.104911,249.513706 C142.938467,251.64342 150.604907,249.931297 157.717776,246.026822 Z" id="Path" fill="#FF816B" fill-rule="nonzero"></path>
                <path d="M161.498772,279.601128 C163.641839,263.508264 177.240314,251.4033 193.48057,251.131871 C192.853885,259.222694 189.407121,267.355276 183.328281,272.731759 C177.249442,278.108241 169.614336,279.9874 161.498772,279.601128 Z" id="Path" fill="#61A9B8" fill-rule="nonzero"></path>
                <path d="M162.407465,279.256616 C155.572215,264.527575 138.97964,257.018955 123.396356,261.602962 C126.414886,269.140477 132.117715,275.87413 139.523037,279.193977 C146.928358,282.513825 154.772359,282.012716 162.407465,279.256616 Z" id="Path" fill="#FF816B" fill-rule="nonzero"></path>
                <path d="M433.479834,352.919646 C420.622358,294.592641 432.226465,231.275425 464.918505,181.279358" id="Path" stroke="#FF8E7A" stroke-width="2.54"></path>
                <path d="M461.461296,187.12563 C481.343375,180.255533 493.202708,159.877839 489.348755,139.207078 C479.238246,142.098894 469.806644,148.602872 464.552939,157.664594 C459.299235,166.726316 458.954558,176.925973 461.461296,187.12563 Z" id="Path" fill="#FF816B" fill-rule="nonzero"></path>
                <path d="M451.131447,206.251292 C455.457002,190.604923 447.67458,174.150624 432.83226,167.561498 C430.241964,175.25561 430.241964,184.077217 433.730508,191.405936 C437.219052,198.734656 443.527675,203.390794 451.131447,206.251292 Z" id="Path" fill="#FF816B" fill-rule="nonzero"></path>
                <path d="M450.442094,205.562267 C462.488181,194.662266 480.702125,194.218235 493.265533,204.51829 C487.55226,210.281044 479.687369,214.248157 471.550916,214.415193 C463.414463,214.58223 456.395596,211.074466 450.442094,205.562267 Z" id="Path" fill="#FF816B" fill-rule="nonzero"></path>
                <path d="M439.579563,236.51619 C441.105581,220.353882 430.570165,205.508323 414.804637,201.605593 C413.603492,209.633778 415.128424,218.309228 419.849447,224.928044 C424.57047,231.546859 431.589336,235.044182 439.579563,236.51619 Z" id="Path" fill="#FF816B" fill-rule="nonzero"></path>
                <path d="M438.775318,235.952443 C448.750643,223.138857 466.601649,219.543724 480.763178,227.496227 C476.125713,234.167242 469.054623,239.449766 461.09573,241.067931 C453.136837,242.686095 445.606179,240.347587 438.775318,235.952443 Z" id="Path" fill="#FF816B" fill-rule="nonzero"></path>
                <path d="M432.101128,266.72889 C432.215471,250.492443 420.428298,236.615589 404.380785,234.094163 C403.879437,242.195426 406.166836,250.72472 411.44143,256.894625 C416.716024,263.06453 424.016899,265.956347 432.101128,266.72889 Z" id="Path" fill="#61A9B8" fill-rule="nonzero"></path>
                <path d="M431.255104,266.227781 C440.072576,252.597216 457.540135,247.465538 472.334272,254.159405 C468.302602,261.195811 461.722415,267.083842 453.920193,269.338833 C446.117971,271.593823 438.482865,270.017418 431.255104,266.227781 Z" id="Path" fill="#FF816B" fill-rule="nonzero"></path>
                <path d="M428.038124,299.896045 C425.624287,283.843651 411.826736,271.970176 395.586313,271.969655 C396.359224,280.050039 399.931325,288.119982 406.104167,293.392067 C412.277009,298.664152 419.92256,300.386714 428.038124,299.896045 Z" id="Path" fill="#61A9B8" fill-rule="nonzero"></path>
                <path d="M427.118987,299.541092 C433.71065,284.704295 450.168761,276.918598 465.827198,281.229733 C462.944449,288.819447 457.346068,295.647058 449.99297,299.092182 C442.639872,302.537307 434.795872,302.171915 427.118987,299.541092 Z" id="Path" fill="#FF816B" fill-rule="nonzero"></path>
                <path d="M147.711714,392.204507 C150.960028,386.306036 155.263262,380.835595 158.093786,374.770088 C150.409551,365.213242 141.647648,356.574613 131.981933,349.025611 C125.75907,344.080812 119.29266,339.450209 112.606938,335.151154 L94.1824148,349.766834 C95.2268889,341.247981 95.8744629,333.835743 96.7622659,325.755359 C83.1000667,318.346264 68.7603182,312.260014 53.9388268,307.579717 C50.5338411,313.071037 47.671982,318.896429 43.0345169,323.604766 C43.0209513,317.066196 42.5568026,310.536324 41.6453663,304.061514 C28.002013,300.540831 14.0611476,298.2936 0.00218297477,297.34874 C-0.0295339004,303.01051 0.284391583,308.668939 0.942209687,314.29249 C4.60831386,313.185874 7.44928348,310.116581 11.3869509,309.511075 C8.81754459,315.712299 6.50925677,322.51903 3.45939233,328.814213 C6.81946921,343.799925 12.5114564,358.165794 20.3276494,371.387602 C26.7824995,367.587525 32.8613389,362.357199 40.6217817,359.13131 C39.2639653,371.02221 39.2430758,383.466418 38.2194912,395.503475 C42.316949,399.965591 46.7064412,404.150713 51.3589757,408.031201 C59.5705034,414.850126 68.5386744,420.703461 78.0870685,425.476059 C80.0193457,418.105581 82.024736,410.766421 86.8084275,404.596516 C92.4485877,415.307722 98.5587614,424.849673 103.676685,435.435602 C125.069628,441.573334 147.598911,442.645647 169.478554,438.567533 C173.092435,437.878508 176.110965,432.115754 177.238997,428.618431 C178.367029,425.121107 178.137245,421.31059 177.635897,417.698429 C175.930784,406.371001 171.905726,395.517046 165.81245,385.815366 C159.430713,387.297814 152.986308,389.072575 147.711714,392.204507 Z" id="Path" fill="#FFAEA0" fill-rule="nonzero"></path>
                <path d="M153.821887,427.459616 C103.574984,397.907441 57.8661095,361.250141 18.1133643,318.624995" id="Path" stroke="#FF8E7A" stroke-width="2.54"></path>
                <path d="M444.13347,404.011889 C441.094051,399.961257 437.302609,396.359536 434.545198,392.141868 C439.251061,384.214212 444.858884,376.857447 451.256784,370.218347 C455.361829,365.87174 459.684528,361.73577 464.208263,357.826338 L479.488919,366.762783 C477.775982,360.49892 476.522613,355.080678 474.997681,349.161328 C484.364989,342.187662 494.378382,336.125851 504.900975,331.058763 C508.034397,334.785762 510.812698,338.815514 514.729476,341.822168 C514.045716,336.955545 513.696738,332.047773 513.685002,327.133409 C523.46541,323.046155 533.605913,319.879629 543.974752,317.674976 C544.587723,321.877117 544.936565,326.113531 545.019226,330.359299 C542.178256,329.931268 539.734187,327.937272 536.78877,327.916392 C539.347731,332.248897 541.802246,337.082512 544.737218,341.488095 C543.841169,352.998168 541.141358,364.296049 536.736546,374.968444 C531.514176,372.82829 526.458921,369.591961 520.317413,368.015556 C522.604811,376.722325 523.952183,385.982403 525.999352,394.824889 C523.425918,398.584227 520.606654,402.169406 517.560001,405.556975 C512.172968,411.511134 506.120765,416.828373 499.521933,421.404548 C497.297203,416.122024 495.02025,410.870819 490.800574,406.788868 C487.75071,415.37036 484.220387,423.127111 481.536089,431.552007 C466.258034,438.40232 449.593563,441.601377 432.863594,440.895602 C430.106183,440.770325 427.244324,436.792772 426.032734,434.318546 C424.950947,431.767064 424.451427,429.006746 424.57047,426.238163 C424.63206,417.624735 426.470329,409.116568 429.970401,401.245349 C434.889874,401.610741 439.872016,402.247567 444.13347,404.011889 Z" id="Path" fill="#FFAEA0" fill-rule="nonzero"></path>
                <path d="M443.350115,430.894301 C477.592342,403.541687 507.699015,371.385282 532.73621,335.422588" id="Path" stroke="#FF8E7A" stroke-width="1.91"></path>
                <rect id="Rectangle" fill="#101439" fill-rule="nonzero" x="137.402754" y="231.839173" width="313.582466" height="209.160827" rx="10.81"></rect>
                <ellipse id="Oval" fill="#1C2363" fill-rule="nonzero" transform="translate(437.817926, 336.454276) rotate(-76.660000) translate(-437.817926, -336.454276) " cx="437.817926" cy="336.454276" rx="9.53175317" ry="9.53580722"></ellipse>
                <path d="M144.087388,371.784313 L144.087388,371.784313 C143.285012,371.784313 142.515649,371.465014 141.949264,370.896939 C141.382879,370.328864 141.066082,369.55877 141.06884,368.756779 L141.06884,304.030194 C141.06884,302.363899 142.4203,301.0131 144.087388,301.0131 L144.087388,301.0131 C145.754477,301.0131 147.105937,302.363899 147.105937,304.030194 L147.105937,368.756779 C147.108695,369.55877 146.791898,370.328864 146.225513,370.896939 C145.659128,371.465014 144.889765,371.784313 144.087388,371.784313 L144.087388,371.784313 Z" id="Path" fill="#1C2363" fill-rule="nonzero"></path>
                <rect id="Rectangle" fill="#DCE8F4" fill-rule="nonzero" x="151.398707" y="239.554164" width="273.192652" height="193.720405"></rect>
                <rect id="Rectangle" fill="#A6AFB8" fill-rule="nonzero" x="151.398707" y="239.554164" width="273.192652" height="13.0183954"></rect>
                <rect id="Rectangle" fill="#FC6047" fill-rule="nonzero" x="155.879501" y="246.60101" width="3.45720935" height="4.39514392"></rect>
                <rect id="Rectangle" fill="#FC6047" fill-rule="nonzero" x="160.37074" y="243.542157" width="3.45720935" height="7.45399705"></rect>
                <rect id="Rectangle" fill="#FC6047" fill-rule="nonzero" x="165.123097" y="241.422883" width="3.45720935" height="9.57327072"></rect>
                <path d="M402.887187,242.216306 L402.887187,242.842692 C402.887187,243.350076 402.475675,243.761392 401.96805,243.761392 L400.923576,243.761392 C400.678949,243.758565 400.443516,243.854448 400.270528,244.027354 C400.097539,244.200261 400.00161,244.435582 400.004378,244.680092 L400.004378,247.457071 C400.004378,247.699776 400.101592,247.932392 400.27427,248.103027 C400.446949,248.273663 400.680771,248.368121 400.923576,248.365331 L401.96805,248.365331 C402.473318,248.370975 402.881541,248.779003 402.887187,249.284031 L402.887187,249.920857 C402.887187,250.422475 403.294023,250.829117 403.79588,250.829117 L418.032062,250.829117 C418.533919,250.829117 418.940814,250.422475 418.940814,249.920857 L418.940814,242.216306 C418.943545,241.973616 418.849042,241.739906 418.678326,241.567309 C418.507609,241.394713 418.274883,241.297606 418.032062,241.297606 L403.79588,241.297606 C403.553059,241.297606 403.320332,241.394713 403.149616,241.567309 C402.978899,241.739906 402.884396,241.973616 402.887187,242.216306 Z" id="Path" fill="#DCE8F4" fill-rule="nonzero"></path>
                <rect id="Rectangle" fill="#B7FC47" fill-rule="nonzero" x="415.191092" y="241.767395" width="3.2169803" height="8.5814924" rx="0.32"></rect>
                <rect id="Rectangle" fill="#B7FC47" fill-rule="nonzero" x="411.253425" y="241.767395" width="3.2169803" height="8.5814924" rx="0.32"></rect>
                <rect id="Rectangle" fill="#B7FC47" fill-rule="nonzero" x="407.315757" y="241.767395" width="3.2169803" height="8.5814924" rx="0.32"></rect>
                <path d="M395.742984,246.068581 C395.742984,248.092352 394.101613,249.732941 392.07688,249.732941 C390.052146,249.732941 388.410776,248.092352 388.410776,246.068581 C388.410776,244.044811 390.052146,242.404222 392.07688,242.404222 C394.101613,242.404222 395.742984,244.044811 395.742984,246.068581 L395.742984,246.068581 Z" id="Path" fill="#DCE8F4" fill-rule="nonzero"></path>
                <rect id="Rectangle" fill="#C3CED9" fill-rule="nonzero" x="168.674309" y="267.19868" width="238.641448" height="151.147016"></rect>
                <rect id="Rectangle" fill="#A7B1BA" fill-rule="nonzero" x="168.674309" y="267.19868" width="238.641448" height="13.0288352"></rect>
                <rect id="Rectangle" fill="#E0EDFA" fill-rule="nonzero" x="246.257847" y="286.982047" width="156.23244" height="6.20122443"></rect>
                <rect id="Rectangle" fill="#E0EDFA" fill-rule="nonzero" x="246.257847" y="298.789429" width="86.221339" height="6.20122443"></rect>
                <rect id="Rectangle" fill="#E0EDFA" fill-rule="nonzero" x="246.257847" y="310.586371" width="46.3955406" height="6.20122443"></rect>
                <rect id="Rectangle" fill="#E0EDFA" fill-rule="nonzero" x="246.257847" y="331.048324" width="156.23244" height="6.20122443"></rect>
                <rect id="Rectangle" fill="#E0EDFA" fill-rule="nonzero" x="246.257847" y="342.855706" width="86.221339" height="6.20122443"></rect>
                <rect id="Rectangle" fill="#E0EDFA" fill-rule="nonzero" x="246.257847" y="354.652648" width="46.3955406" height="6.20122443"></rect>
                <rect id="Rectangle" fill="#E0EDFA" fill-rule="nonzero" x="246.257847" y="374.081063" width="156.23244" height="6.20122443"></rect>
                <rect id="Rectangle" fill="#E0EDFA" fill-rule="nonzero" x="246.257847" y="385.888445" width="86.221339" height="6.20122443"></rect>
                <rect id="Rectangle" fill="#E0EDFA" fill-rule="nonzero" x="246.257847" y="397.685387" width="46.3955406" height="6.20122443"></rect>
                <rect id="Rectangle" fill="#E0EDFA" fill-rule="nonzero" x="178.032798" y="286.982047" width="60.589944" height="34.0962946"></rect>
                <polygon id="Path" fill="#CEDAE6" fill-rule="nonzero" points="178.032798 321.078342 208.322547 304.030194 238.622741 321.078342"></polygon>
                <polygon id="Path" fill="#CEDAE6" fill-rule="nonzero" points="238.622741 286.982047 208.322547 304.030194 178.032798 286.982047"></polygon>
                <rect id="Rectangle" fill="#E0EDFA" fill-rule="nonzero" x="178.032798" y="330.849968" width="60.589944" height="34.0962946"></rect>
                <polygon id="Path" fill="#CEDAE6" fill-rule="nonzero" points="178.032798 364.946263 208.322547 347.898115 238.622741 364.946263"></polygon>
                <polygon id="Path" fill="#CEDAE6" fill-rule="nonzero" points="238.622741 330.849968 208.322547 347.898115 178.032798 330.849968"></polygon>
                <rect id="Rectangle" fill="#E0EDFA" fill-rule="nonzero" x="178.032798" y="374.717889" width="60.589944" height="34.0962946"></rect>
                <polygon id="Path" fill="#CEDAE6" fill-rule="nonzero" points="178.032798 408.814184 208.322547 391.766036 238.622741 408.814184"></polygon>
                <polygon id="Path" fill="#CEDAE6" fill-rule="nonzero" points="238.622741 374.717889 208.322547 391.766036 178.032798 374.717889"></polygon>
                <g id="Group" opacity="0.44" transform="translate(151.398707, 239.554164)" fill="#FFFFFF" fill-rule="nonzero">
                    <polygon id="Path" points="97.6269964 0 0 97.5805468 0 12.3084909 12.3247947 0"></polygon>
                    <polygon id="Path" points="156.869569 0 0 156.794932 0 113.177566 113.23144 0"></polygon>
                </g>
                <g id="Group" opacity="0.44" transform="translate(251.877118, 260.632063)" fill="#FFFFFF" fill-rule="nonzero">
                    <polygon id="Path" points="172.714241 0 172.714241 85.2720558 85.291757 172.642506 0 172.642506"></polygon>
                    <polygon id="Path" points="172.714241 100.858635 172.714241 144.486441 144.534329 172.642506 100.8962 172.642506"></polygon>
                </g>
                <path d="M197.49135,234.25076 L278.479874,171.518171 C283.601407,167.551615 290.75928,167.551615 295.880813,171.518171 L376.858892,234.25076 L376.858892,339.379262 L197.49135,339.379262 L197.49135,234.25076 Z" id="Path" fill="#EE8F23" fill-rule="nonzero"></path>
                <rect id="Rectangle" fill="#FAFAFA" fill-rule="nonzero" x="218.245051" y="178.523258" width="137.881029" height="151.564607"></rect>
                <rect id="Rectangle" fill="#DBDBDB" fill-rule="nonzero" x="226.538176" y="187.647619" width="121.284335" height="4.6248189"></rect>
                <rect id="Rectangle" fill="#DBDBDB" fill-rule="nonzero" x="226.538176" y="196.939015" width="103.068707" height="4.6248189"></rect>
                <rect id="Rectangle" fill="#DBDBDB" fill-rule="nonzero" x="226.538176" y="206.219973" width="86.3466759" height="4.6248189"></rect>
                <rect id="Rectangle" fill="#DBDBDB" fill-rule="nonzero" x="226.538176" y="224.051103" width="86.3466759" height="4.6248189"></rect>
                <rect id="Rectangle" fill="#DBDBDB" fill-rule="nonzero" x="226.538176" y="232.966668" width="64.0471533" height="4.6248189"></rect>
                <rect id="Rectangle" fill="#DBDBDB" fill-rule="nonzero" x="287.180344" y="251.653859" width="64.0471533" height="4.6248189"></rect>
                <rect id="Rectangle" fill="#DBDBDB" fill-rule="nonzero" x="299.139572" y="260.746901" width="52.0983693" height="4.6248189"></rect>
                <polygon id="Path" fill="#FFAC42" fill-rule="nonzero" points="287.180344 286.84633 197.49135 234.313398 197.49135 339.379262"></polygon>
                <polygon id="Path" fill="#FFAC42" fill-rule="nonzero" points="287.180344 286.84633 376.869337 234.313398 376.869337 339.379262"></polygon>
                <path d="M278.479874,276.646673 L197.49135,339.379262 L376.858892,339.379262 L295.870368,276.646673 C290.75088,272.685507 283.599362,272.685507 278.479874,276.646673 Z" id="Path" fill="#FFBE6E" fill-rule="nonzero"></path>
                <ellipse id="Oval" fill="#FC6D5F" fill-rule="nonzero" transform="translate(376.896737, 234.338023) rotate(-74.470000) translate(-376.896737, -234.338023) " cx="376.896737" cy="234.338023" rx="14.0210919" ry="14.0268091"></ellipse>
                <polygon id="Path" fill="#FFFFFF" fill-rule="nonzero" points="373.72547 227.203914 373.72547 240.723418 369.892249 240.723418 369.892249 230.158369 367.385512 230.158369 367.385512 227.203914"></polygon>
                <path d="M385.016235,233.290301 C385.933455,234.064962 386.435759,235.223571 386.374051,236.422232 C386.378374,237.236702 386.154016,238.03605 385.726477,238.729422 C385.249541,239.472754 384.562473,240.057756 383.752421,240.410225 C382.722347,240.857799 381.605862,241.07172 380.483217,241.036611 C379.529203,241.037257 378.578672,240.921565 377.652692,240.692099 C376.799287,240.496583 375.984064,240.161477 375.239957,239.700321 L376.608218,236.829383 C377.161925,237.193436 377.767634,237.471507 378.404714,237.654125 C379.041011,237.848864 379.702868,237.947391 380.368325,237.946439 C380.91574,237.973129 381.459368,237.84272 381.935036,237.570607 C382.307586,237.355653 382.535175,236.956565 382.530386,236.52663 C382.551472,236.095407 382.324343,235.690012 381.945481,235.482653 C381.288735,235.195723 380.570687,235.077302 379.856533,235.13814 L376.232207,235.13814 L376.900671,227.235233 L385.528027,227.235233 L385.528027,230.189689 L380.075872,230.189689 L379.898312,232.162805 L380.807004,232.162805 C382.298738,232.036032 383.787837,232.434907 385.016235,233.290301 L385.016235,233.290301 Z" id="Path" fill="#FFFFFF" fill-rule="nonzero"></path>
                <path d="M145.6541,109.704283 C147.908665,109.767194 150.102283,110.44989 151.994058,111.677399 C153.87465,112.909239 155.369722,114.646026 156.307736,116.68849 C157.003014,118.051703 157.405057,119.545309 157.487991,121.073194 C157.552101,122.300392 157.265939,123.520529 156.662857,124.591397 C156.073085,125.594461 155.18622,126.389706 154.124785,126.867267 C153.305569,127.285438 152.390382,127.479913 151.471821,127.431015 C150.621388,127.343903 149.824068,126.976649 149.205312,126.387038 C149.079712,128.298007 147.857752,129.963152 146.071889,130.656905 C145.060943,131.148814 143.929045,131.337374 142.81313,131.199773 C141.640261,131.066869 140.525133,130.619587 139.585705,129.905241 C138.53768,129.112498 137.707622,128.067339 137.17297,126.867267 C136.582163,125.697014 136.29145,124.398396 136.326946,123.08807 C136.358295,121.912204 136.720266,120.768921 137.37142,119.789102 C137.986061,118.838925 138.854352,118.079532 139.878158,117.59675 C141.217772,116.882664 142.805085,116.798557 144.212725,117.367075 L143.60693,116.082983 L147.85794,114.068107 L151.638936,122.012773 C151.803772,122.453742 152.117879,122.823104 152.526739,123.056751 C152.853927,123.227562 153.244026,123.227562 153.571214,123.056751 C154.66443,122.534762 154.570427,120.927037 153.289206,118.233576 C152.581579,116.675269 151.457578,115.342282 150.040891,114.3813 C148.641323,113.457082 147.007471,112.950141 145.330313,112.919732 C143.460072,112.895248 141.611445,113.321376 139.940826,114.162065 C138.226223,114.933205 136.740237,116.134374 135.627148,117.648949 C134.599613,119.055558 133.991272,120.724081 133.872432,122.461684 C133.757648,124.263019 134.1178,126.062925 134.916906,127.68157 C135.671324,129.341528 136.840301,130.779584 138.311447,131.857478 C139.710908,132.876772 141.376389,133.467936 143.105583,133.559161 C144.969716,133.644785 146.824839,133.253095 148.495069,132.421226 C150.296604,131.582242 151.882725,130.343228 153.132534,128.798625 L155.430377,131.137134 C154.726113,131.985316 153.919172,132.742778 153.028087,133.392125 C152.051371,134.136812 151.001509,134.78042 149.894665,135.313043 C147.601344,136.464509 145.053924,137.017564 142.489343,136.920768 C140.159457,136.812792 137.905931,136.057154 135.982269,134.738855 C134.025056,133.370873 132.47054,131.503457 131.480586,129.331053 C130.429245,127.202092 129.974463,124.828252 130.164548,122.461684 C130.362096,120.130153 131.212755,117.901401 132.619063,116.030784 C134.18029,113.97151 136.234829,112.337996 138.593455,111.280688 C140.785033,110.192812 143.2077,109.651912 145.6541,109.704283 Z M146.991027,124.956789 C147.206551,124.0926 147.087156,123.178914 146.656795,122.399045 C146.327098,121.579737 145.695217,120.91826 144.891634,120.551205 C144.16485,120.284515 143.36129,120.321236 142.661885,120.653099 C141.962481,120.984962 141.426024,121.58407 141.173306,122.315527 C140.855519,124.076617 141.69569,125.844334 143.262254,126.710671 C143.982406,127.017853 144.802232,126.98722 145.497429,126.627153 C146.215166,126.314699 146.760672,125.704633 146.991027,124.956789 L146.991027,124.956789 Z" id="Shape" fill="#FFFFFF" fill-rule="nonzero"></path>
                <path d="M383.647974,115.247801 L382.300602,119.590746 L386.165156,120.300651 L385.434024,124.288644 L381.078567,123.484781 L379.637193,127.973883 L375.459297,127.20134 L376.900671,122.712238 L373.098785,122.012773 L371.667855,126.501875 L367.489959,125.729332 L368.931333,121.24023 L365.035445,120.519886 L365.766577,116.542333 L370.153368,117.346195 L371.50074,113.00325 L367.604851,112.282906 L368.335983,108.305353 L372.722774,109.109216 L374.164149,104.620114 L378.342045,105.392657 L376.900671,109.881759 L380.702557,110.581223 L382.133486,106.092122 L386.311383,106.864665 L384.870008,111.353766 L388.765897,112.063671 L388.034765,116.051664 L383.647974,115.247801 Z M379.470077,114.475258 L375.668191,113.775794 L374.32082,118.118739 L378.122706,118.818203 L379.470077,114.475258 Z" id="Shape" fill="#FFFFFF" fill-rule="nonzero"></path>
                <path d="M182.252475,383.894448 L130.258551,383.894448 C114.476014,383.894448 101.681739,371.106261 101.681739,355.331233 L101.681739,355.331233 C101.681739,347.756757 104.692834,340.492664 110.052327,335.13768 C115.411819,329.782695 122.68047,326.775688 130.258551,326.778455 L153.686106,326.778455 C161.263227,326.775686 168.530805,329.783027 173.888639,335.138312 C179.246473,340.493597 182.255245,347.757717 182.252475,355.331233 L182.252475,383.894448 Z" id="Path" fill="#FF816B" fill-rule="nonzero"></path>
                <path d="M141.967106,333.741785 C133.225658,333.741785 125.345146,339.00556 122.000915,347.078166 C118.656685,355.150773 120.507474,364.442089 126.690105,370.618791 C132.872736,376.795494 142.169368,378.640911 150.2442,375.294369 C158.319031,371.947827 163.581501,364.068521 163.577278,355.331233 C163.560005,343.410792 153.893228,333.753284 141.967106,333.741785 L141.967106,333.741785 Z M123.166572,355.331233 C123.171259,353.925161 123.335952,352.524185 123.657475,351.155324 C125.381556,350.379048 127.171141,349.757183 129.005182,349.297045 C128.354146,352.838244 128.262513,356.459563 128.733619,360.02913 C127.020681,359.58022 125.245075,359.037352 123.42769,358.390086 C123.256173,357.379278 123.165366,356.356434 123.156127,355.331233 L123.166572,355.331233 Z M131.856596,348.628899 C138.171268,347.491984 144.64264,347.541549 150.939139,348.775056 C151.809144,352.869127 151.964622,357.082699 151.398707,361.229704 C144.808449,362.304734 138.073752,362.116961 131.553699,360.676396 C130.866801,356.679739 130.966139,352.587556 131.846152,348.628899 L131.856596,348.628899 Z M153.874111,349.401442 C156.064525,349.920873 158.22609,350.555095 160.349851,351.301481 C160.643012,352.624861 160.793578,353.975811 160.798974,355.331233 C160.789726,356.38157 160.691895,357.429258 160.506522,358.463164 C158.493987,359.370198 156.394184,360.069799 154.239677,360.551119 C154.643777,356.835536 154.517172,353.081393 153.863666,349.401442 L153.874111,349.401442 Z M159.315821,348.012953 C157.226873,347.355247 155.200593,346.812379 153.247427,346.384348 C152.611575,343.761018 151.769909,341.191843 150.730244,338.700676 C154.573541,340.728611 157.601481,344.016842 159.305376,348.012953 L159.315821,348.012953 Z M146.991027,337.228669 C148.364256,339.971905 149.456077,342.847065 150.249786,345.810161 C144.423134,344.779623 138.466376,344.716133 132.619063,345.622245 C133.465479,342.766447 134.658065,340.024804 136.170275,337.458344 C138.045281,336.846045 140.005013,336.532496 141.977551,336.529204 C143.66942,336.532049 145.352864,336.767408 146.980582,337.228669 L146.991027,337.228669 Z M132.075936,339.368822 C131.082397,341.576965 130.27534,343.864285 129.663201,346.206872 C128.025658,346.575238 126.413776,347.049506 124.83773,347.626681 C126.376827,344.220127 128.892135,341.346338 132.065491,339.368822 L132.075936,339.368822 Z M124.252825,361.595096 C125.986652,362.148404 127.65781,362.639073 129.28719,363.004465 C130.013664,366.071141 131.192923,369.012608 132.786178,371.732114 C128.807712,369.494332 125.773158,365.893905 124.24238,361.595096 L124.252825,361.595096 Z M137.329641,373.559074 C135.062686,370.597826 133.356511,367.247249 132.295276,363.67261 C135.902309,364.368751 139.567707,364.718336 143.241364,364.716588 C145.765313,364.719258 148.285965,364.534312 150.782468,364.16328 C149.901254,367.557679 148.368837,370.748694 146.270339,373.559074 C143.328796,374.268421 140.257407,374.23973 137.329641,373.475556 L137.329641,373.559074 Z M150.636241,372.024428 C152.093927,369.413346 153.150227,366.597887 153.769664,363.67261 C155.742113,363.252325 157.679921,362.683474 159.566495,361.970928 C157.920432,366.298607 154.742857,369.872142 150.636241,372.013988 L150.636241,372.024428 Z" id="Shape" fill="#FAFAFA" fill-rule="nonzero"></path>
                <path d="M415.399987,361.991807 L467.404354,361.991807 L467.404354,390.555023 C467.404354,406.330051 454.610079,419.118238 438.827542,419.118238 L415.399987,419.118238 C399.61745,419.118238 386.823175,406.330051 386.823175,390.555023 L386.823175,390.555023 C386.823175,374.779994 399.61745,361.991807 415.399987,361.991807 L415.399987,361.991807 Z" id="Path" fill="#FF816B" fill-rule="nonzero" transform="translate(427.113764, 390.555023) rotate(180.000000) translate(-427.113764, -390.555023) "></path>
                <path d="M448.520262,382.391121 C448.520262,374.310738 435.662785,367.36829 427.118987,374.342057 C418.575188,367.36829 405.717712,374.342057 405.717712,382.391121 C405.717712,382.391121 402.9603,398.228255 427.118987,409.722444 C451.277673,398.228255 448.520262,382.391121 448.520262,382.391121 Z" id="Path" stroke="#FAFAFA" stroke-width="3.81" stroke-linejoin="round"></path>
                <path d="M369.766913,41.9710433 C369.432681,41.845766 369.098449,41.7413683 368.722438,41.6474104 C368.635514,41.3149639 368.530918,40.9873861 368.409096,40.6660718 C367.843228,39.1652343 366.938999,37.8148951 365.766577,36.7198381 C364.597941,37.8159943 363.697345,39.1662459 363.134502,40.6660718 C363.009165,41.0001445 362.904718,41.3342172 362.810715,41.710049 C362.476483,41.8040069 362.152696,41.9084047 361.818464,42.0336819 C360.316913,42.5992814 358.965931,43.5030799 357.870352,44.6749442 C358.96703,45.8430238 360.317925,46.7431916 361.818464,47.3057667 C362.142251,47.4310439 362.476483,47.5354417 362.80027,47.6293996 C362.894273,47.9530325 362.99872,48.2871052 363.124057,48.6733768 C363.689926,50.1742143 364.594155,51.5245535 365.766577,52.6196105 C366.990569,51.5083086 367.929146,50.1190163 368.503099,48.5689791 C368.617991,48.2349064 368.732883,47.9112734 368.816441,47.5876405 C369.150673,47.4936826 369.47446,47.3892848 369.808692,47.2640076 C371.298991,46.6941811 372.638862,45.7906447 373.72547,44.6227453 C372.631254,43.441962 371.275517,42.5338003 369.766913,41.9710433 L369.766913,41.9710433 Z" id="Path" fill="#FFC8BE" fill-rule="nonzero"></path>
                <path d="M14.2696995,262.897494 C13.9459125,262.772216 13.6116808,262.667819 13.2774491,262.573861 C13.186893,262.241274 13.0788133,261.913705 12.9536621,261.592522 C12.3935217,260.091314 11.4925388,258.740483 10.3215873,257.646288 C9.15295164,258.742445 8.25235538,260.092696 7.68951253,261.592522 C7.56432298,261.917234 7.45624576,262.248281 7.36572555,262.5843 C7.03149383,262.678258 6.69726211,262.782656 6.37347514,262.907933 C4.86920336,263.474124 3.5149451,264.377724 2.4149182,265.549196 C3.52439305,266.691949 4.87750121,267.569802 6.37347514,268.117379 C6.69726211,268.242657 7.03149383,268.347054 7.35528081,268.441012 C7.44928348,268.775085 7.5537309,269.098718 7.67906779,269.48499 C8.24493649,270.985827 9.14916518,272.336166 10.3215873,273.431223 C11.4940095,272.336166 12.3982382,270.985827 12.9641069,269.48499 C13.0894438,269.161357 13.1938912,268.827284 13.2878938,268.503651 C13.6221256,268.409693 13.9459125,268.305295 14.2696995,268.180018 C15.775002,267.615835 17.1296896,266.711949 18.2282564,265.538756 C17.1321671,264.362648 15.7767457,263.458272 14.2696995,262.897494 L14.2696995,262.897494 Z" id="Path" fill="#FFC8BE" fill-rule="nonzero"></path>
                <path d="M397.006798,198.912132 C396.672566,198.786855 396.338334,198.682457 395.962324,198.588499 C395.875399,198.256053 395.770803,197.928475 395.648981,197.607161 C395.083113,196.106323 394.178884,194.755984 393.006462,193.660927 C391.837826,194.757083 390.93723,196.107335 390.374387,197.607161 C390.24905,197.941234 390.144603,198.275306 390.0506,198.598939 C389.716368,198.692897 389.392581,198.797295 389.05835,198.922572 C387.556798,199.488172 386.205816,200.39197 385.110237,201.563834 C386.206915,202.731914 387.55781,203.632082 389.05835,204.194657 C389.382137,204.319934 389.716368,204.424332 390.040155,204.51829 C390.134158,204.841923 390.238605,205.175995 390.363942,205.510068 C390.929811,207.010906 391.83404,208.361245 393.006462,209.456302 C394.190512,208.356655 395.099288,206.994139 395.659426,205.478749 C395.774318,205.144676 395.88921,204.821043 395.972768,204.49741 C396.307,204.403452 396.630787,204.299055 397.017242,204.173777 C398.518794,203.608178 399.869776,202.704379 400.965355,201.532515 C399.867789,200.363096 398.512323,199.46584 397.006798,198.912132 L397.006798,198.912132 Z" id="Path" fill="#BCDFEB" fill-rule="nonzero"></path>
                <path d="M534.480482,62.4538755 C534.316475,62.3922089 534.149088,62.3399254 533.979134,62.2972789 C533.937951,62.1304037 533.885609,61.966479 533.822463,61.8066097 C533.539436,61.0519342 533.085417,60.373016 532.495981,59.823053 C531.910333,60.3741189 531.459947,61.052949 531.179944,61.8066097 C531.117275,61.9632062 531.065052,62.1302426 531.012828,62.2972789 C530.960604,62.4643153 530.689041,62.4016767 530.521925,62.4643153 C529.767906,62.7441851 529.088753,63.1943566 528.537424,63.7797265 C529.087649,64.3688818 529.76689,64.8226851 530.521925,65.1055775 C530.682395,65.1672114 530.846304,65.2194979 531.012828,65.2621741 C531.059087,65.4322109 531.11488,65.5995116 531.179944,65.7632832 C531.466686,66.4897067 531.912842,67.1425676 532.485536,67.6737614 C533.077178,67.1298099 533.531711,66.4537 533.812019,65.7006445 C533.874687,65.5336082 533.926911,65.3665718 533.979134,65.1995355 C534.145658,65.1568592 534.309567,65.1045727 534.470037,65.0429389 C535.225072,64.7600465 535.904313,64.3062432 536.454538,63.7170879 C535.898517,63.1547403 535.224174,62.7232238 534.480482,62.4538755 L534.480482,62.4538755 Z" id="Path" fill="#FFFFFF" fill-rule="nonzero"></path>
                <path d="M575.162749,179.953507 C575.002804,179.890391 574.838801,179.838074 574.671846,179.79691 C574.671846,179.629874 574.567399,179.462838 574.50473,179.306241 C574.241263,178.542844 573.801071,177.852466 573.220027,177.291365 C572.630592,177.841328 572.176572,178.520246 571.893545,179.274922 C571.830399,179.434791 571.778058,179.598716 571.736874,179.765591 C571.566756,179.811828 571.399376,179.867595 571.235526,179.932627 C570.485257,180.213915 569.809809,180.663999 569.26147,181.248039 C569.808708,181.835863 570.484243,182.289578 571.235526,182.57389 L571.726429,182.730486 C571.778653,182.897522 571.830877,183.064559 571.893545,183.231595 C572.173852,183.984651 572.628386,184.660761 573.220027,185.204712 C573.808132,184.657735 574.262063,183.982521 574.546509,183.231595 C574.608205,183.067666 574.660514,182.900359 574.703181,182.730486 C574.870135,182.689322 575.034138,182.637005 575.194083,182.57389 C575.951987,182.296614 576.632455,181.841991 577.178584,181.248039 C576.616095,180.666206 575.925988,180.223032 575.162749,179.953507 Z" id="Path" fill="#FFFFFF" fill-rule="nonzero"></path>
                <path d="M573.616927,177.197407 C573.45292,177.13574 573.285534,177.083457 573.11558,177.04081 C573.074396,176.873935 573.022055,176.710011 572.958909,176.550141 C572.675882,175.795466 572.221862,175.116548 571.632427,174.566585 C571.046778,175.11765 570.596392,175.796481 570.316389,176.550141 C570.253721,176.717178 570.201497,176.873774 570.149273,177.04081 L569.658371,177.207847 C568.904351,177.487717 568.225198,177.937888 567.67387,178.523258 C568.224094,179.112413 568.903336,179.566217 569.658371,179.849109 C569.818841,179.910743 569.98275,179.963029 570.149273,180.005706 C570.19194,180.175579 570.244249,180.342886 570.305945,180.506815 C570.596094,181.257816 571.049111,181.935235 571.632427,182.490371 C572.221862,181.940408 572.675882,181.26149 572.958909,180.506815 C573.021577,180.339778 573.073801,180.172742 573.126025,180.016145 L573.616927,179.849109 C574.371962,179.566217 575.051204,179.112413 575.601428,178.523258 C575.046028,177.94022 574.368287,177.487419 573.616927,177.197407 Z" id="Path" fill="#FFFFFF" fill-rule="nonzero"></path>
                <path d="M96.6682632,213.120662 C96.5044137,213.055629 96.3370334,212.999862 96.1669156,212.953625 C96.1242191,212.787181 96.0719077,212.62335 96.0102445,212.462956 C95.7238979,211.709987 95.2703512,211.031776 94.6837624,210.479399 C94.0998324,211.031912 93.6497299,211.710315 93.367725,212.462956 C93.3050565,212.629992 93.2528328,212.797029 93.2006091,212.964065 C93.0340857,213.006741 92.8701766,213.059028 92.7097063,213.120662 C91.9546716,213.403554 91.2754302,213.857357 90.7252054,214.446513 C91.279158,215.028764 91.9575399,215.478424 92.7097063,215.761924 C92.8701766,215.823558 93.0340857,215.875844 93.2006091,215.918521 C93.2432759,216.088393 93.2955842,216.255701 93.3572802,216.41963 C93.6449157,217.171933 94.0982814,217.849874 94.6837624,218.403186 C95.2758593,217.855489 95.7303297,217.175896 96.0102445,216.41963 C96.072913,216.252593 96.1251367,216.095997 96.1773604,215.92896 C96.2295841,215.761924 96.5011474,215.824563 96.6682632,215.761924 C97.4212626,215.480053 98.0999886,215.030165 98.652764,214.446513 C98.1025393,213.857357 97.4232979,213.403554 96.6682632,213.120662 L96.6682632,213.120662 Z" id="Path" fill="#FFC8BE" fill-rule="nonzero"></path>
                <path d="M24.0459773,421.80126 C23.885507,421.739626 23.721598,421.687339 23.5550745,421.644663 C23.5550745,421.477627 23.4506271,421.31059 23.3879586,421.153994 C23.1110574,420.39876 22.6602263,419.719259 22.0719212,419.170437 C21.4824855,419.7204 21.0284662,420.399318 20.7454391,421.153994 C20.6822931,421.313863 20.6299518,421.477788 20.588768,421.644663 C20.4186502,421.6909 20.2512699,421.746667 20.0874204,421.811699 C19.3371505,422.092987 18.6617033,422.543071 18.1133643,423.127111 C18.6606022,423.714936 19.3361371,424.168651 20.0874204,424.452962 L20.5783232,424.609558 C20.5783232,424.776595 20.6827706,424.943631 20.7454391,425.110667 C21.0257462,425.863723 21.4802797,426.539833 22.0719212,427.083784 C22.6600259,426.536807 23.1139568,425.861593 23.3984034,425.110667 C23.4600994,424.946738 23.5124077,424.779431 23.5550745,424.609558 C23.7220291,424.568394 23.8860319,424.516078 24.0459773,424.452962 C24.8038806,424.175686 25.4843491,423.721063 26.0304782,423.127111 C25.4802534,422.537955 24.801012,422.084152 24.0459773,421.80126 L24.0459773,421.80126 Z" id="Path" fill="#BCDFEB" fill-rule="nonzero"></path>
                <path d="M305.08263,108.388871 C304.918623,108.327205 304.751236,108.274921 304.581282,108.232275 C304.529059,108.065238 304.476835,107.898202 304.414167,107.731166 C304.132745,106.981253 303.682447,106.306127 303.098129,105.758049 C302.513121,106.307661 302.059704,106.98211 301.771647,107.731166 C301.709951,107.895095 301.657643,108.062402 301.614976,108.232275 C301.444858,108.278512 301.277478,108.334278 301.113628,108.399311 C300.363358,108.680599 299.687911,109.130682 299.139572,109.714722 C299.687911,110.298762 300.363358,110.748846 301.113628,111.030134 C301.280744,111.092772 301.44786,111.155411 301.604531,111.19717 C301.761202,111.238929 301.708979,111.531243 301.771647,111.698279 C302.051954,112.451334 302.506488,113.127444 303.098129,113.671396 C303.686234,113.124418 304.140165,112.449205 304.424611,111.698279 C304.486307,111.53435 304.538616,111.367043 304.581282,111.19717 C304.751236,111.154523 304.918623,111.10224 305.08263,111.040573 C305.833913,110.756262 306.509448,110.302547 307.056686,109.714722 C306.509448,109.126897 305.833913,108.673183 305.08263,108.388871 Z" id="Path" fill="#FFFFFF" fill-rule="nonzero"></path>
                <path d="M113.264957,41.1776206 L112.763609,41.0105843 C112.763609,40.8539877 112.659162,40.6869514 112.596494,40.519915 C112.315072,39.7700021 111.864774,39.0948762 111.280456,38.5467982 C110.694808,39.0978641 110.244422,39.7766941 109.964419,40.5303548 C109.894695,40.6923895 109.838791,40.8600219 109.797303,41.0314638 C109.627349,41.0741103 109.459962,41.1263938 109.295955,41.1880604 C108.544672,41.4723716 107.869137,41.9260866 107.321899,42.5139114 C107.870238,43.0979513 108.545685,43.5480351 109.295955,43.8293227 L109.797303,43.996359 C109.838487,44.1632342 109.890828,44.3271589 109.953974,44.4870283 C110.237001,45.2417037 110.69102,45.920622 111.280456,46.4705849 C111.869892,45.920622 112.323911,45.2417037 112.606938,44.4870283 C112.670084,44.3271589 112.722426,44.1632342 112.763609,43.996359 C112.933563,43.9537126 113.10095,43.9014291 113.264957,43.8397624 C114.01624,43.5554512 114.691775,43.1017363 115.239013,42.5139114 C114.695939,41.9187587 114.019414,41.4608011 113.264957,41.1776206 L113.264957,41.1776206 Z" id="Path" fill="#FFC8BE" fill-rule="nonzero"></path>
                <path d="M523.168827,219.16529 L522.66748,218.998253 C522.66748,218.841657 522.573477,218.67462 522.510809,218.507584 C522.224462,217.754615 521.770915,217.076403 521.184326,216.524027 C520.600397,217.07654 520.150294,217.754943 519.868289,218.507584 C519.805621,218.67462 519.753397,218.841657 519.701173,219.008693 C519.53465,219.051369 519.370741,219.103656 519.21027,219.16529 C518.455236,219.448182 517.775994,219.901985 517.225769,220.491141 C517.777098,221.076511 518.456251,221.526682 519.21027,221.806552 L519.701173,221.973588 C519.74387,222.140032 519.796181,222.303864 519.857844,222.464257 C520.14548,223.216561 520.598845,223.894502 521.184326,224.447814 C521.776423,223.900117 522.230894,223.220524 522.510809,222.464257 C522.573477,222.307661 522.625701,222.140625 522.677924,221.973588 L523.168827,221.816992 C523.920186,221.52698 524.597928,221.074179 525.153328,220.491141 C524.603103,219.901985 523.923862,219.448182 523.168827,219.16529 L523.168827,219.16529 Z" id="Path" fill="#BCDFEB" fill-rule="nonzero"></path>
                <path d="M327.162813,150.022681 L326.661465,149.866085 C326.618799,149.696212 326.56649,149.528905 326.504794,149.364976 C326.220348,148.61405 325.766417,147.938836 325.178312,147.391859 C324.596256,147.941847 324.14633,148.616414 323.862275,149.364976 C323.799606,149.532012 323.747383,149.699048 323.695159,149.866085 C323.642935,150.033121 323.371372,149.970482 323.204256,150.033121 C322.450237,150.312991 321.771083,150.763162 321.219755,151.348532 C321.773331,151.933735 322.451594,152.386885 323.204256,152.674383 C323.364726,152.736017 323.528635,152.788304 323.695159,152.83098 C323.741418,153.001017 323.797211,153.168317 323.862275,153.332089 C324.143696,154.082002 324.593994,154.757128 325.178312,155.305206 C325.769954,154.761254 326.224487,154.085144 326.504794,153.332089 C326.569858,153.168317 326.625651,153.001017 326.67191,152.83098 C326.838434,152.788304 327.002343,152.736017 327.162813,152.674383 C327.917848,152.391491 328.597089,151.937687 329.147314,151.348532 C328.594675,150.762222 327.91614,150.308891 327.162813,150.022681 L327.162813,150.022681 Z" id="Path" fill="#DBF6FF" fill-rule="nonzero"></path>
                <path d="M252.493358,71.6930735 C252.207299,71.5802855 251.914233,71.4861305 251.616,71.4111997 C251.540996,71.11653 251.446792,70.8270786 251.333992,70.5446986 C250.840502,69.2222224 250.046784,68.0322114 249.015259,67.0682546 C247.989833,68.0352649 247.200131,69.2246105 246.706971,70.5446986 C246.592079,70.8370122 246.498076,71.1293259 246.414518,71.4111997 C246.13251,71.4947179 245.840058,71.5886758 245.547605,71.7035133 C244.243257,72.2038462 243.071207,72.9967463 242.12173,74.0211426 C243.0892,75.0460813 244.279112,75.8354068 245.599829,76.3283322 C245.882343,76.4410794 246.171932,76.5352383 246.466742,76.610206 C246.541709,76.9082974 246.635908,77.2012239 246.74875,77.4871469 C247.245937,78.807731 248.039127,79.9969508 249.067483,80.9635909 C250.101923,79.9999995 250.899129,78.8101189 251.39666,77.4871469 C251.509461,77.2047669 251.603665,76.9153155 251.678668,76.6206458 C251.973478,76.5456781 252.263067,76.4515192 252.545582,76.338772 C253.866794,75.841822 255.05658,75.0490087 256.02368,74.0211426 C255.044714,72.9804811 253.835715,72.1832075 252.493358,71.6930735 L252.493358,71.6930735 Z" id="Path" fill="#FFC8BE" fill-rule="nonzero"></path>
                <path d="M75.1729857,155.983791 C74.880533,155.868953 74.5880802,155.774995 74.2956275,155.691477 C74.2205617,155.400235 74.1263545,155.114261 74.0136194,154.835416 C73.5245196,153.513262 72.7342398,152.323045 71.7053316,151.358972 C70.6738069,152.322929 69.8800886,153.51294 69.3865991,154.835416 C69.2717069,155.12773 69.1777043,155.409603 69.0941463,155.701917 C68.8121383,155.785435 68.5196856,155.879393 68.2272328,155.994231 C66.9044496,156.483098 65.713666,157.273002 64.749134,158.30142 C65.7135496,159.332454 66.9041271,160.125795 68.2272328,160.619049 C68.5097472,160.731797 68.7993364,160.825956 69.0941463,160.900923 C69.1691128,161.199015 69.2633126,161.491941 69.3761543,161.777864 C69.8716929,163.098844 70.6693048,164.285755 71.7053316,165.243868 C72.7352305,164.282649 73.5288115,163.096417 74.0240642,161.777864 C74.1368651,161.495484 74.2310688,161.206033 74.3060722,160.911363 C74.598525,160.827845 74.880533,160.733887 75.1729857,160.629489 C76.4965876,160.132195 77.6870346,159.335368 78.6510846,158.30142 C77.6896851,157.266838 76.498208,156.472898 75.1729857,155.983791 Z" id="Path" fill="#FFC8BE" fill-rule="nonzero"></path>
                <path d="M449.972081,127.942564 C449.679628,127.827726 449.387175,127.733768 449.094722,127.65025 C449.011164,127.368376 448.917162,127.076063 448.812714,126.794189 C448.315528,125.473605 447.522337,124.284385 446.493982,123.317745 C445.465626,124.284385 444.672436,125.473605 444.175249,126.794189 C444.070802,127.086503 443.976799,127.368376 443.893241,127.66069 C443.600788,127.744208 443.308336,127.838166 443.015883,127.942564 C441.686724,128.454892 440.493153,129.265705 439.527339,130.312392 C440.492638,131.337533 441.678375,132.130028 442.994993,132.630021 C443.278056,132.741248 443.567549,132.835376 443.861907,132.911895 C443.945465,133.204209 444.039468,133.496522 444.143915,133.788836 C444.639454,135.109816 445.437065,136.296727 446.473092,137.25484 C447.509119,136.296727 448.306731,135.109816 448.80227,133.788836 C448.906717,133.496522 449.00072,133.214649 449.084278,132.922335 L449.951191,132.640461 C451.270176,132.140073 452.456558,131.343575 453.418845,130.312392 C452.47073,129.264379 451.290311,128.45278 449.972081,127.942564 Z" id="Path" fill="#FFFFFF" fill-rule="nonzero"></path>
                <path d="M623.521901,88.9395765 C623.229448,88.8351788 622.94744,88.7307811 622.654988,88.6577027 C622.57143,88.3653891 622.477427,88.0835152 622.37298,87.7912016 C621.877727,86.4726484 621.084146,85.2864163 620.054247,84.3251974 C619.024348,85.2864163 618.230767,86.4726484 617.735515,87.7912016 C617.622673,88.0771246 617.528473,88.3700511 617.453507,88.6681424 C617.155273,88.7430733 616.862207,88.8372282 616.576148,88.9500163 C615.254858,89.4409178 614.067171,90.2347159 613.108494,91.2676456 C614.067531,92.2976811 615.255355,93.0879947 616.576148,93.5748352 C616.868601,93.6896727 617.150609,93.7836306 617.443062,93.8671488 C617.52662,94.1490226 617.620622,94.4413362 617.72507,94.7336498 C618.222601,96.0566219 619.019807,97.2465025 620.054247,98.2100938 C621.089321,97.2491518 621.883639,96.0582415 622.37298,94.7336498 C622.487296,94.4518203 622.581534,94.1622647 622.654988,93.8671488 C622.950244,93.79373 623.239938,93.6995372 623.521901,93.5852749 C624.847123,93.0961676 626.038601,92.3022274 627,91.2676456 C626.03595,90.2336976 624.845503,89.4368707 623.521901,88.9395765 L623.521901,88.9395765 Z" id="Path" fill="#DBF6FF" fill-rule="nonzero"></path>
                <path d="M441.407393,35.3104689 C441.12433,35.1992419 440.834838,35.1051144 440.540479,35.0285951 C440.456921,34.7362815 440.362919,34.4544076 440.248027,34.162094 C439.758927,32.8399402 438.968647,31.6497232 437.939739,30.68565 C436.908214,31.6496068 436.114496,32.8396178 435.621006,34.162094 C435.509726,34.4450218 435.415554,34.7343768 435.338998,35.0285951 C435.046545,35.1121132 434.754093,35.2060712 434.46164,35.3209087 C433.14035,35.8118102 431.952663,36.6056083 430.993986,37.638538 C431.955781,38.6653232 433.142782,39.4550889 434.46164,39.9457276 C434.744154,40.0584748 435.033743,40.1526337 435.328553,40.2276014 C435.40352,40.5256928 435.49772,40.8186193 435.610561,41.1045422 C436.108092,42.4275143 436.905299,43.6173949 437.939739,44.5809862 C438.974813,43.6200442 439.769131,42.4291339 440.258471,41.1045422 C440.371272,40.8221623 440.465476,40.5327109 440.540479,40.2380412 C440.835736,40.1646224 441.125429,40.0704296 441.407393,39.9561673 C442.728605,39.4592173 443.918391,38.6664041 444.885492,37.638538 C443.921442,36.60459 442.730995,35.8077631 441.407393,35.3104689 Z" id="Path" fill="#FFFFFF" fill-rule="nonzero"></path>
            </g>
        </g>
    </g>
</svg>